<?xml version="1.0" standalone="no"?>
<!DOCTYPE svg PUBLIC "-//W3C//DTD SVG 20010904//EN"
 "http://www.w3.org/TR/2001/REC-SVG-20010904/DTD/svg10.dtd">
<svg version="1.0" xmlns="http://www.w3.org/2000/svg"
 width="273.000000pt" height="60.000000pt" viewBox="0 0 273.000000 60.000000"
 preserveAspectRatio="xMidYMid meet">
<metadata>
Created by potrace 1.15, written by Peter Selinger 2001-2017
</metadata>
<g transform="translate(0.000000,60.000000) scale(0.100000,-0.100000)"
fill="#000000" stroke="none">
<path d="M811 456 c-48 -27 -64 -91 -36 -146 41 -80 143 -59 160 33 9 44 -16
100 -51 116 -31 14 -43 14 -73 -3z m76 -23 c25 -37 24 -114 -1 -142 -31 -34
-64 -27 -83 16 -39 94 34 203 84 126z"/>
<path d="M1240 365 c0 -98 1 -105 20 -105 17 0 20 7 20 50 0 28 3 50 8 50 20
-1 35 -22 41 -56 4 -24 12 -40 22 -42 14 -3 15 3 9 38 -4 23 -12 46 -18 52 -8
8 -6 15 4 25 8 8 14 25 14 37 0 34 -31 56 -78 56 l-42 0 0 -105z"/>
<path d="M2061 456 c-97 -54 -42 -218 64 -192 31 8 65 60 65 99 0 40 -27 86
-56 97 -33 13 -44 12 -73 -4z m73 -15 c43 -47 23 -171 -27 -171 -57 0 -86 97
-48 158 23 36 50 41 75 13z"/>
<path d="M157 352 c-3 -4 13 -38 35 -75 45 -77 48 -77 93 7 17 31 33 56 38 56
4 0 13 -11 19 -25 6 -14 14 -25 18 -25 10 0 40 46 40 60 0 12 -236 14 -243 2z"/>
</g>
</svg>
